<svg width="22" height="31" viewBox="0 0 22 31" fill="none" xmlns="http://www.w3.org/2000/svg">
<g filter="url(#filter0_d)">
<rect x="4" y="26" width="14" height="3" rx="1.5" fill="#C4C4C4" fill-opacity="0.01"/>
</g>
<g clip-path="url(#clip0)">
<path d="M9.74798 25.4754C2.36957 14.7789 1 13.6811 1 9.75C1 4.36521 5.36521 0 10.75 0C16.1348 0 20.5 4.36521 20.5 9.75C20.5 13.6811 19.1304 14.7789 11.752 25.4754C11.2678 26.1749 10.2321 26.1748 9.74798 25.4754ZM10.75 13.8125C12.9937 13.8125 14.8125 11.9937 14.8125 9.75C14.8125 7.50633 12.9937 5.6875 10.75 5.6875C8.50633 5.6875 6.6875 7.50633 6.6875 9.75C6.6875 11.9937 8.50633 13.8125 10.75 13.8125Z" fill="url(#paint0_linear)"/>
</g>
<defs>
<filter id="filter0_d" x="0" y="20" width="22" height="11" filterUnits="userSpaceOnUse" color-interpolation-filters="sRGB">
<feFlood flood-opacity="0" result="BackgroundImageFix"/>
<feColorMatrix in="SourceAlpha" type="matrix" values="0 0 0 0 0 0 0 0 0 0 0 0 0 0 0 0 0 0 127 0"/>
<feOffset dy="-2"/>
<feGaussianBlur stdDeviation="2"/>
<feColorMatrix type="matrix" values="0 0 0 0 0 0 0 0 0 0 0 0 0 0 0 0 0 0 0.25 0"/>
<feBlend mode="normal" in2="BackgroundImageFix" result="effect1_dropShadow"/>
<feBlend mode="normal" in="SourceGraphic" in2="effect1_dropShadow" result="shape"/>
</filter>
<linearGradient id="paint0_linear" x1="1" y1="0" x2="21.0757" y2="0.452372" gradientUnits="userSpaceOnUse">
<stop stop-color="#FF7E35"/>
<stop offset="1" stop-color="#FF3465"/>
</linearGradient>
<clipPath id="clip0">
<rect width="19.5" height="26" fill="white" transform="translate(1)"/>
</clipPath>
</defs>
</svg>
